<svg xmlns="http://www.w3.org/2000/svg" width="65.198" height="56.83" viewBox="0 0 65.198 56.83">
  <g id="Group_1" data-name="Group 1" transform="translate(-54.587 -80.208)">
    <path id="Path_106" data-name="Path 106" d="M-578,429.3h65.2v52.5H-578Z" transform="translate(632.587 -349.092)" fill="#271c44"></path>
    <path id="Path_108" data-name="Path 108" d="M-665.894,430.208h-30.191l-2.392,2.929-1.121,3.856-.919,3.32-.72,5.367,1.152,5.576,5.146,6.013s4.435,5.118,4.414,5.178,1.866,5.613,1.807,5.612-.269,5.629-.31,5.715-.668,4.808-.668,4.808l-.737,4.126h24.539Z" transform="translate(785.679 -350)" fill="#3a79a4"></path>
    <path id="Path_109" data-name="Path 109" d="M-519.479,487.037s7.607-3.335,5.6-18.754S-525.1,455.607-525.3,445.073s3.492-14.864,3.492-14.864-14.079,6.218-14.616,18.485,15.645,21.192,16.943,28.625S-519.479,487.037-519.479,487.037Z" transform="translate(611.444 -350)" fill="#271c44"></path>
    <path id="Subtraction_5" data-name="Subtraction 5" d="M-10340.105,78.769h-3.388a35.9,35.9,0,0,0-.572-5.391c-.527-3.019-3.447-6.217-6.829-9.919-4.89-5.354-10.432-11.421-10.112-18.706a16.906,16.906,0,0,1,2.511-8.064,24.325,24.325,0,0,1,5-5.78,32.411,32.411,0,0,1,7.105-4.642,12.577,12.577,0,0,0-1.82,3.482,30.851,30.851,0,0,0-1.672,11.382c.094,4.923,2.148,6.941,4.526,9.279,2.729,2.681,5.822,5.719,6.892,13.933a32.678,32.678,0,0,1,.074,8.8,17.817,17.817,0,0,1-1.713,5.625Z" transform="translate(10436.03 53.941)" fill="#fff"></path>
  </g>
</svg>
