<svg fill="#000" version="1.1" id="Layer_1" xmlns="http://www.w3.org/2000/svg" viewBox="0 0 32 32" xml:space="preserve"><path id="select--product_1_" d="m23 10.509-2.255-2.255.51-.509L23 9.491l3.745-3.745.51.509L23 10.509zM30.36 30V18a.36.36 0 0 0-.36-.36H18a.36.36 0 0 0-.36.36v12c0 .199.161.36.36.36h12a.36.36 0 0 0 .36-.36zm-12-11.64h11.28v11.28H18.36V18.36zm-4 11.64V18a.36.36 0 0 0-.36-.36H2a.36.36 0 0 0-.36.36v12c0 .199.161.36.36.36h12a.36.36 0 0 0 .36-.36zm-12-11.64h11.28v11.28H2.36V18.36zm28-4.36V2a.36.36 0 0 0-.36-.36H18a.36.36 0 0 0-.36.36v12c0 .199.161.36.36.36h12a.36.36 0 0 0 .36-.36zm-12-11.64h11.28v11.28H18.36V2.36zm-4 11.64V2a.36.36 0 0 0-.36-.36H2a.36.36 0 0 0-.36.36v12c0 .199.161.36.36.36h12a.36.36 0 0 0 .36-.36zm-12-11.64h11.28v11.28H2.36V2.36z"/><path id="_Transparent_Rectangle" style="fill:none" d="M0 0h32v32H0z"/></svg>