<svg xmlns="http://www.w3.org/2000/svg" width="132.979" height="22.518"><path id="Union_1" data-name="Union 1" d="M0 22.518V17.7h17.064v-4.593H0V7.991L6.661 0h22.4v5.327H11.727l-3.3 3.3h20.632v6.513l-6.681 7.378Zm59.493-.032V0h7.177v16.94h9.763L71.9 22.486Zm-9.625-.036H31.023V8.834L38.4 0h19.133v13.3l-7.664 9.15Zm-10.821-6.47h10.462V6.469H39.047Zm85.658 6.3V5.325l-4.946.293-4.134 5.15v11.51h-7.533V.257h7.533v4.769l4.134-4.769h13.22v22.02Zm-18.578 0H74.034L86.306 8.309h13.256V5.116H88.383L92.96.128h13.168v22.149ZM85.174 16.8h11.944v-4.1h-7.837Z" fill="#fff"/></svg>