<svg xmlns="http://www.w3.org/2000/svg" width="132.979" height="22.518" viewBox="0 0 132.979 22.518">
  <path id="Union_1" data-name="Union 1" d="M0,22.518V17.7H17.064V13.107H0V7.991L6.661,0h22.4V5.327H11.727l-3.3,3.3H29.059V15.14l-6.681,7.378Zm59.493-.032V0H66.67V16.94h9.763L71.9,22.486Zm-9.625-.036H31.023V8.834L38.4,0H57.533V13.3L49.869,22.45ZM39.047,15.98H49.509V6.469H39.047Zm85.658,6.3V5.325l-4.946.293-4.134,5.15v11.51h-7.533V.257h7.533V5.026L119.759.257h13.22v22.02Zm-18.578,0H74.034L86.306,8.309H99.562V5.116H88.383L92.96.128h13.168V22.277h0ZM85.174,16.8H97.118V12.7H89.281Z" fill="#fff"/>
</svg>
